<?xml version="1.0" encoding="utf-8"?>
<!-- Generator: Adobe Illustrator 18.0.0, SVG Export Plug-In . SVG Version: 6.00 Build 0)  -->
<!DOCTYPE svg PUBLIC "-//W3C//DTD SVG 1.1//EN" "http://www.w3.org/Graphics/SVG/1.1/DTD/svg11.dtd">
<svg version="1.1"
	 id="svg2" inkscape:version="0.45.1" inkscape:output_extension="org.inkscape.output.svg.inkscape" xmlns:inkscape="http://www.inkscape.org/namespaces/inkscape" xmlns:svg="http://www.w3.org/2000/svg" xmlns:rdf="http://www.w3.org/1999/02/22-rdf-syntax-ns#" xmlns:sodipodi="http://sodipodi.sourceforge.net/DTD/sodipodi-0.dtd" xmlns:cc="http://web.resource.org/cc/" xmlns:dc="http://purl.org/dc/elements/1.1/"
	 xmlns="http://www.w3.org/2000/svg" xmlns:xlink="http://www.w3.org/1999/xlink" x="0px" y="0px" viewBox="0 0 532 474"
	 enable-background="new 0 0 532 474" xml:space="preserve">
<g id="layer1" transform="translate(68.436394,-52.667183)" inkscape:groupmode="layer" inkscape:label="Layer 1">
	<g id="g6647">
		<rect id="rect5675" x="-55.4" y="52.7" fill="#000E67" width="506" height="474"/>
		<path id="path5671" fill="#FFFFFF" d="M-35.4,289.7v-217h233h233v217v217h-233h-233V289.7z M416.1,289.7V87.2l-218.8-0.3
			l-218.7-0.2V289c0,111.3,0.3,202.6,0.6,203c0.4,0.4,98.8,0.6,218.8,0.4l218.1-0.2V289.7z M97.4,455.4
			c44.3-78.1,78.1-139,77.6-139.8c-0.3-0.6-31.1-0.9-80.5-0.9c-44,0-79.9-0.2-79.9-0.4c0-0.6,101-180,101.8-180.8
			c0.4-0.4,18.7,31.2,40.6,70.2c22,39,40.3,71,40.6,71c0.3,0,18.5-32,40.5-71s40.2-70.6,40.6-70.2c0.8,0.8,101.9,180.2,101.9,180.8
			c0,0.2-36,0.4-80,0.4c-49.3,0-80.1,0.3-80.5,0.9c-0.5,0.8,33.4,61.7,77.6,139.8l3,5.3H197.6H94.4L97.4,455.4z M236.1,418.4
			c-1.9-3.4-11.3-20.1-20.8-37s-17.5-30.7-17.7-30.7c-0.3,0-8.3,13.8-17.8,30.7s-18.9,33.6-20.8,37l-3.6,6.3h42.2h42.1L236.1,418.4z
			 M158.6,279.2c0-1.1-41.3-73.5-41.9-73.5c-0.3,0-5.7,9.1-11.9,20.2c-6.2,11.2-15.5,27.8-20.7,37l-9.4,16.8h41.9
			C139.7,279.7,158.6,279.5,158.6,279.2z M317.6,274.4c-1.7-2.9-11-19.5-20.8-36.9c-9.7-17.5-18-31.8-18.4-31.8
			c-0.6,0-41.8,72.4-41.8,73.5c0,0.3,18.9,0.5,42,0.5h42L317.6,274.4z"/>
	</g>
</g>
</svg>
